<svg xmlns="http://www.w3.org/2000/svg" viewBox="0 0 170.82 194.65"><defs><style>.cls-1{fill:#4a6033;}</style></defs><g id="Capa_2" data-name="Capa 2"><g id="Capa_1-2" data-name="Capa 1"><path class="cls-1" d="M79.79,0H91c.81.76,1.86.68,2.85.8,44.79,5.57,69,58.06,44.31,96-6.2,9.54-12.29,19.15-18.4,28.75-.58.92-1.59,1.71-1.3,3.07,4.06.9,8.11,1.87,12.2,2.69a98.91,98.91,0,0,1,12.42,3.56c7.4,2.5,14.49,5.67,20.38,11,10,9,9.73,21.15-.62,29.77a55.16,55.16,0,0,1-14.49,8.45c-11.81,4.83-24.2,7.26-36.79,8.94-5.11.69-10.33.32-15.37,1.65H74.6C69.41,193.3,64,193.72,58.77,193c-13.16-1.81-26.1-4.4-38.32-9.79-6.1-2.69-11.82-6-16.09-11.33-5.82-7.23-5.8-15.72,0-22.93a36.9,36.9,0,0,1,12.25-9.4c8.36-4.33,17.33-6.9,26.46-9,3.13-.72,6.41-.83,9.72-2.27-6.42-10.08-12.56-20-18.95-29.7C25,85.18,21.35,70.7,23.42,54.68,26.86,27.92,48.33,5.38,74.79,1,76.46.74,78.29,1.14,79.79,0Zm5.38,158.09c1.38-.86,1.85-2.11,2.54-3.18q20.22-31.66,40.44-63.33a51.47,51.47,0,0,0,8-36.65C131.8,26.35,103.8,6.58,75.35,12.28,40,19.37,22.72,60.27,42.18,90.8q15.56,24.4,31.14,48.77Q79.23,148.84,85.17,158.09Zm-25.88-19c-13.86,2-27.65,4.52-40.07,11.85a27.87,27.87,0,0,0-3.16,2.25c-6.43,5.21-6.36,9.42.2,14.61a41.12,41.12,0,0,0,9,5.17c12.66,5.56,26.09,8,39.73,9.36a201.25,201.25,0,0,0,53-1.6c10.1-1.66,20-4.09,29.31-8.51a31.19,31.19,0,0,0,9.92-6.79c3.19-3.49,3.2-6.41.12-9.93a22.19,22.19,0,0,0-5.34-4.35c-12.5-7.53-26.44-10.07-40.73-12.11-2.69,4.18-5.27,8.14-7.81,12.13-4.18,6.55-8.26,13.17-12.52,19.67-3.27,5-7.56,4.92-10.94,0-.41-.59-.76-1.22-1.14-1.83-5-7.77-9.88-15.56-14.88-23.29C62.5,143.59,61.44,141.19,59.29,139.14Z"/><path class="cls-1" d="M57.14,63C56.59,49.72,67.66,34.76,85.33,34.7s28.55,14.87,28.48,28.55C113.75,76,103.74,91.45,85.49,91.5S56.47,76.19,57.14,63Zm45.39,0A17.12,17.12,0,1,0,85.29,80.36,17.33,17.33,0,0,0,102.53,63Z"/></g></g></svg>