<svg xmlns="http://www.w3.org/2000/svg" viewBox="0 0 94.68 94.68"><defs><style>.cls-1{fill:#fff;}.cls-2{fill:#cae220;}</style></defs><g id="Capa_2" data-name="Capa 2"><g id="Capa_1-2" data-name="Capa 1"><circle class="cls-1" cx="47.34" cy="47.34" r="47.34"/><path class="cls-2" d="M78.12,28.61c0,.25,0,.5,0,.75V67.94H70c-.15-.21-.08-.45-.08-.67,0-5.36,0-10.72,0-16.08,0-6.87,0-13.75,0-20.62a3.91,3.91,0,0,1,.31-1.69,1.19,1.19,0,0,0,.07-.27Zm-2.9,3.51A1.28,1.28,0,0,0,74,30.82a1.24,1.24,0,0,0-1.27,1.23A1.19,1.19,0,0,0,74,33.36,1.24,1.24,0,0,0,75.22,32.12ZM72.73,64.93a1.21,1.21,0,0,0,1.21,1.28,1.26,1.26,0,1,0,0-2.52A1.18,1.18,0,0,0,72.73,64.93Z"/><path class="cls-2" d="M53.77,28.61A2.74,2.74,0,0,1,54.15,30q0,18.62,0,37.22a2.22,2.22,0,0,1,0,.63c-.41.11-7.14.16-8.08,0-.13-.18-.07-.4-.07-.61q0-3.33,0-6.68Q46,45,46,29.42c0-.27,0-.54,0-.81Zm-2.45,3.54a1.27,1.27,0,1,0-2.54-.07,1.27,1.27,0,0,0,2.54.07Zm0,32.79a1.27,1.27,0,0,0-2.54,0,1.27,1.27,0,1,0,2.54,0Z"/><path class="cls-2" d="M65.82,63.33H58.29a.89.89,0,0,1-.22-.43q-1.4-4.35-2.8-8.72a2.2,2.2,0,0,1-.11-.68v-21c1.24,3,2.34,6,3.46,9.05s2.23,6,3.35,9.07l.09,0a.1.1,0,0,0,0,0l6.62-17.89a.73.73,0,0,1,.08.46V53.72a1.62,1.62,0,0,1-.07.58l-2.82,8.77A2.51,2.51,0,0,1,65.82,63.33Z"/><path class="cls-2" d="M13.64,28.72h8a2.16,2.16,0,0,1,.29,0l9.63,39.13-.06.08a.09.09,0,0,1-.05,0,2.58,2.58,0,0,1-.29,0H24a.82.82,0,0,1-.2-.06c-.1-.41-.21-.84-.32-1.27l-8-31-1.62-6.22c0-.18,0-.39-.21-.52ZM20,32.16a1.19,1.19,0,0,0-1.22-1.25,1.21,1.21,0,0,0-1.27,1.27,1.18,1.18,0,0,0,1.26,1.21A1.15,1.15,0,0,0,20,32.16Z"/><path class="cls-2" d="M35.45,28.74h8.31q-5.1,19.67-10.17,39.17a.72.72,0,0,1-.49.11c-.13,0-.26,0-.39,0a1.15,1.15,0,0,1-.19-.5q-1.62-6.55-3.25-13.11a2.4,2.4,0,0,1,0-1.19Q32.14,41.88,35,30.58C35.12,30,35.29,29.36,35.45,28.74Zm4.86,3.43a1.27,1.27,0,0,0-2.54,0,1.27,1.27,0,0,0,2.54,0Z"/></g></g></svg>